<svg width="23" height="24" viewBox="0 0 23 24" fill="none" xmlns="http://www.w3.org/2000/svg">
<path d="M8.6263 22H14.3763C19.168 22 21.0846 20 21.0846 15V9C21.0846 4 19.168 2 14.3763 2H8.6263C3.83464 2 1.91797 4 1.91797 9V15C1.91797 20 3.83464 22 8.6263 22Z" stroke="#2C54E2" stroke-width="1.5" stroke-linecap="round" stroke-linejoin="round"/>
<path d="M16.7721 12C16.7721 15.04 14.4146 17.5 11.5013 17.5C8.58797 17.5 6.81505 14.44 6.81505 14.44M6.81505 14.44H9.19172M6.81505 14.44V17.19M6.23047 12C6.23047 8.96 8.5688 6.5 11.5013 6.5C15.0184 6.5 16.7721 9.56 16.7721 9.56M16.7721 9.56V6.81M16.7721 9.56H14.4338" stroke="#2C54E2" stroke-width="1.5" stroke-linecap="round" stroke-linejoin="round"/>
</svg>
