<svg width="24" height="24" viewBox="0 0 24 24" fill="none" xmlns="http://www.w3.org/2000/svg">
<g clip-path="url(#clip0_2903_1084)">
<path d="M12 8V13" stroke="#2C54E2" stroke-width="1.5" stroke-linecap="round" stroke-linejoin="round"/>
<path d="M12 22C7.17 22 3.25 18.08 3.25 13.25C3.25 8.42 7.17 4.5 12 4.5C16.83 4.5 20.75 8.42 20.75 13.25" stroke="#2C54E2" stroke-width="1.5" stroke-linecap="round" stroke-linejoin="round"/>
<path d="M9 2H15" stroke="#2C54E2" stroke-width="1.5" stroke-miterlimit="10" stroke-linecap="round" stroke-linejoin="round"/>
<path d="M14.8984 18.4998V17.3398C14.8984 15.9098 15.9184 15.3198 17.1584 16.0398L18.1584 16.6198L19.1584 17.1998C20.3984 17.9198 20.3984 19.0898 19.1584 19.8098L18.1584 20.3898L17.1584 20.9698C15.9184 21.6898 14.8984 21.0998 14.8984 19.6698V18.4998Z" stroke="#2C54E2" stroke-width="1.5" stroke-miterlimit="10" stroke-linecap="round" stroke-linejoin="round"/>
</g>
<defs>
<clipPath id="clip0_2903_1084">
<rect width="24" height="24" fill="white"/>
</clipPath>
</defs>
</svg>
